<svg xmlns="http://www.w3.org/2000/svg" viewBox="0 0 512 512" style="enable-background:new 0 0 512 512" xml:space="preserve"><path style="fill:#DA634D" d="M126.761 474.569v5.783c1.124 17.494 15.63 31.348 33.407 31.348s32.283-13.85 33.407-31.348h.109v-5.783h-66.923z"/><path style="fill:#E3B13D" d="M126.652 77.586h22.345v348.79h-22.345z"/><path style="fill:#D2A339" d="M148.979 77.586h22.341v348.79h-22.341z"/><path style="fill:#C89D37" d="M171.349 77.586h22.345v348.79h-22.345z"/><path style="fill:#E3B13D" d="M126.652 77.586h22.345v348.79h-22.345z"/><path style="fill:#D2A339" d="M148.979 77.586h22.341v348.79h-22.341z"/><path style="fill:#C89D37" d="M171.349 77.586h22.345v348.79h-22.345z"/><path style="fill:#E6D9B8" d="M174.656 33.712H145.68l-19.028 43.874c0 4.873 5.003 8.825 11.171 8.825 6.171 0 11.174-3.948 11.174-8.825 0 4.873 5 8.825 11.171 8.825 6.171 0 11.171-3.948 11.171-8.825 0 4.873 5.003 8.825 11.174 8.825 6.171 0 11.171-3.948 11.171-8.825l-19.028-43.874z"/><path style="fill:#484949" d="M160.168.305 145.64 33.802h.044c0 4.873 6.486 8.825 14.485 8.825 8.002 0 14.485-3.952 14.485-8.825h.044L160.168.305z"/><path style="fill:#E8C751" d="M126.652 420.905h67.032v59.447h-67.032z"/><path style="fill:#EDDC9B" d="M126.652 439.323h67.032v22.635h-67.032z"/><path style="fill:#4C86AC" d="M327.464 73.123c0 7.516-6.095 13.611-13.611 13.611h-9.104c-7.516 0-13.611-6.095-13.611-13.611V13.611C291.142 6.095 297.233 0 304.753 0h9.104c7.516 0 13.611 6.095 13.611 13.611v59.512h-.004z"/><path style="fill:#213A48" d="M314.883 507.588a4.412 4.412 0 0 1-4.409 4.412 4.413 4.413 0 0 1-4.412-4.412v-35.274a4.41 4.41 0 0 1 4.412-4.409 4.409 4.409 0 0 1 4.409 4.409v35.274z"/><path style="fill:#4C86AC" d="M280.381 169.602v256.296c0 15.971 12.947 63.848 28.926 63.848 15.971 0 28.922-47.877 28.922-63.848V169.602h-57.848z"/><path style="fill:#589BC7" d="M351.582 222.678c0 7.516-6.095 13.611-13.611 13.611h-57.333c-7.52 0-13.614-6.095-13.614-13.611V57.293c0-7.516 6.095-13.611 13.614-13.611h57.333c7.516 0 13.611 6.095 13.611 13.611v165.385z"/><path style="fill:#335A83" d="M380.243 214.346c-10.319 0-18.716-8.393-18.716-18.716V52.137c0-4.688-3.814-8.506-8.506-8.506h-61.879a5.106 5.106 0 0 1 0-10.21h61.879c10.319 0 18.712 8.393 18.712 18.716V195.63c0 4.692 3.818 8.509 8.509 8.509a5.103 5.103 0 1 1 .001 10.207zM267.031 190.801h84.554v17.233h-84.554z"/><g style="opacity:0.2"><path style="fill:#FFFFFF" d="M300.928 217.374c0 5.406-4.383 9.789-9.786 9.789-5.406 0-9.786-4.383-9.786-9.789V69.718a9.784 9.784 0 0 1 9.786-9.786c5.402 0 9.786 4.38 9.786 9.786v147.656z"/></g><g style="opacity:0.2"><path style="fill:#FFFFFF" d="M302.893 442.561a5.875 5.875 0 1 1-11.751 0V252.876a5.875 5.875 0 1 1 11.751 0v189.685z"/></g></svg>