<svg width="32" height="32" fill="none" xmlns="http://www.w3.org/2000/svg"><g clip-path="url(#a)"><path fill-rule="evenodd" clip-rule="evenodd" d="M24.456 24.485c.778-.778.925-1.83.839-2.739-.087-.92-.425-1.92-.905-2.917A19.349 19.349 0 0 0 22.682 16a19.349 19.349 0 0 0 1.708-2.829c.48-.997.818-1.996.905-2.917.085-.909-.061-1.961-.84-2.74-.777-.777-1.83-.924-2.738-.838-.921.087-1.92.425-2.918.905a19.344 19.344 0 0 0-2.828 1.707 19.35 19.35 0 0 0-2.83-1.707c-.996-.48-1.996-.818-2.916-.905-.91-.086-1.962.06-2.74.839-.778.778-.924 1.83-.839 2.739.087.92.425 1.92.905 2.917.433.899 1.01 1.854 1.708 2.829a19.356 19.356 0 0 0-1.708 2.829c-.48.997-.818 1.996-.905 2.917-.085.909.061 1.961.84 2.74.777.777 1.83.924 2.739.838.92-.087 1.92-.425 2.917-.905a19.362 19.362 0 0 0 2.829-1.707c.974.698 1.93 1.274 2.828 1.707.997.48 1.997.818 2.918.905.909.086 1.96-.06 2.739-.839Zm-8.485-3.537a28.93 28.93 0 0 0 2.62-2.328A28.918 28.918 0 0 0 20.919 16c-.68-.87-1.461-1.754-2.328-2.62a28.93 28.93 0 0 0-2.62-2.328c-.87.68-1.754 1.46-2.62 2.328A28.918 28.918 0 0 0 11.021 16c.68.87 1.461 1.753 2.328 2.62a28.918 28.918 0 0 0 2.62 2.328Zm1.179.866a30.635 30.635 0 0 0 2.44-2.195c.8-.801 1.536-1.622 2.195-2.44 1.934 2.813 2.678 5.303 1.673 6.308-1.006 1.005-3.495.261-6.308-1.672Zm-6.994-4.635a30.657 30.657 0 0 0 2.196 2.44c.8.8 1.621 1.537 2.44 2.195-2.813 1.934-5.303 2.678-6.308 1.673-1.006-1.005-.262-3.495 1.672-6.308Zm0-2.358a30.657 30.657 0 0 1 2.196-2.44c.8-.8 1.621-1.537 2.44-2.196-2.813-1.933-5.303-2.677-6.308-1.672-1.006 1.005-.262 3.495 1.672 6.308Zm6.994-4.636a30.635 30.635 0 0 1 2.44 2.196c.8.801 1.536 1.622 2.195 2.44 1.934-2.813 2.678-5.303 1.673-6.308-1.006-1.005-3.495-.261-6.308 1.672Z" fill="#fff" stroke="#fff" stroke-width=".5" style="--darkreader-inline-stroke: #edebe8; --darkreader-inline-fill: #edebe8;"/></g><defs><clipPath id="a"><rect width="32" height="32" rx="8" fill="#fff" style="--darkreader-inline-fill: #edebe8;"/></clipPath></defs></svg>