<svg xmlns="http://www.w3.org/2000/svg" viewBox="0 0 300 300" class="icon"><path fill="#002C73" class="logo-background-square" d="M0 0h300v300H0z"/><path clip-rule="evenodd" d="M259.512 102.343c0-8.697-6.467-18.784-14.362-22.421l-80.782-37.194c-7.896-3.637-20.824-3.637-28.725 0L54.84 79.922c-7.9 3.637-14.368 13.724-14.368 22.42v95.309c0 8.696 6.467 18.784 14.368 22.426l80.803 37.2c7.9 3.63 20.83 3.63 28.725 0l80.797-37.2c7.896-3.637 14.363-13.725 14.363-22.426l-.016-95.308zm-27.723 13.271-61.002 28.076c-5.265 2.42-9.571 9.15-9.571 14.948v64.728c0 5.797-4.744 10.54-10.541 10.54h-1.381c-5.798 0-10.541-4.743-10.541-10.54v-64.733c0-5.803-4.306-12.523-9.572-14.948L68.196 115.62a10.573 10.573 0 0 1-5.166-13.982l.575-1.26a10.567 10.567 0 0 1 13.977-5.165l62.83 28.925c5.266 2.424 13.884 2.424 19.149 0l62.846-28.925a10.567 10.567 0 0 1 13.978 5.165l.574 1.26a10.573 10.573 0 0 1-5.17 13.977z" fill="#FFD009"/></svg>